<svg version="1.1" xmlns="http://www.w3.org/2000/svg" xmlns:xlink="http://www.w3.org/1999/xlink" width="58.06259" height="58.61911" viewBox="0,0,58.06259,58.61911"><defs><linearGradient x1="215.95238" y1="179.53963" x2="266.08725" y2="179.53963" gradientUnits="userSpaceOnUse" id="color-1"><stop offset="0" stop-color="#dadada"/><stop offset="1" stop-color="#fefefe"/></linearGradient></defs><g transform="translate(-211.47863,-147.39702)"><g data-paper-data="{&quot;isPaintingLayer&quot;:true}" fill-rule="nonzero" stroke="none" stroke-linecap="butt" stroke-linejoin="miter" stroke-miterlimit="10" stroke-dasharray="" stroke-dashoffset="0" style="mix-blend-mode: normal"><path d="M215.95238,201.68312v-43.44271c0,0 1.10694,-4.21459 4.45717,-4.21459c5.78196,0 30.54015,-0.32761 41.24456,0.84835c4.15195,0.45612 3.71213,4.17674 3.71213,4.17674c0,0 0.74216,35.82422 0.72056,41.10279c-0.00515,1.25945 0.01218,2.26394 -0.89831,3.31253c-0.91048,1.04859 -1.93787,1.60866 -3.3623,1.59433c-4.29276,-0.04318 -33.35074,0.27477 -42.10572,-0.43176c-1.48598,-0.11992 -3.76808,-2.94567 -3.76808,-2.94567z" fill="url(#color-1)" stroke-width="0"/><path d="M213.91275,202.60387v-43.44271c0,0 1.10694,-4.21459 4.45717,-4.21459c5.78197,0 30.54015,-0.32761 41.24455,0.84835c4.15195,0.45612 3.71213,4.17674 3.71213,4.17674c0,0 0.74216,35.82422 0.72057,41.10279c-0.00516,1.25945 0.01218,2.26394 -0.89831,3.31253c-0.91048,1.04859 -1.93787,1.60866 -3.3623,1.59433c-4.29276,-0.04318 -33.35074,0.27476 -42.10572,-0.43177c-1.48598,-0.11992 -3.76809,-2.94566 -3.76809,-2.94566z" fill="#ffffff" stroke-width="0"/><text transform="translate(211.98865,191.76876) scale(1.02004,1.02004)" font-size="40" xml:space="preserve" fill="#e4e4e4" fill-rule="nonzero" stroke="none" stroke-width="1" stroke-linecap="butt" stroke-linejoin="miter" stroke-miterlimit="10" stroke-dasharray="" stroke-dashoffset="0" font-family="Sans Serif" font-weight="normal" text-anchor="start" style="mix-blend-mode: normal"><tspan x="0" dy="0">🎨</tspan></text></g></g></svg>