<svg version="1.1" xmlns="http://www.w3.org/2000/svg" xmlns:xlink="http://www.w3.org/1999/xlink" width="52.17451" height="52.03226" viewBox="0,0,52.17451,52.03226"><defs><linearGradient x1="215.95238" y1="179.53963" x2="266.08725" y2="179.53963" gradientUnits="userSpaceOnUse" id="color-1"><stop offset="0" stop-color="#dadada"/><stop offset="1" stop-color="#fefefe"/></linearGradient></defs><g transform="translate(-213.91275,-153.98387)"><g data-paper-data="{&quot;isPaintingLayer&quot;:true}" fill-rule="nonzero" stroke="none" stroke-linecap="butt" stroke-linejoin="miter" stroke-miterlimit="10" stroke-dasharray="" stroke-dashoffset="0" style="mix-blend-mode: normal"><path d="M215.95238,201.68312v-43.44271c0,0 1.10694,-4.21459 4.45716,-4.21459c5.78197,0 30.54015,-0.32761 41.24456,0.84835c4.15195,0.45612 3.71213,4.17674 3.71213,4.17674c0,0 0.74216,35.82422 0.72056,41.10279c-0.00515,1.25945 0.01218,2.26394 -0.89831,3.31253c-0.91048,1.04859 -1.93787,1.60866 -3.3623,1.59433c-4.29276,-0.04318 -33.35074,0.27476 -42.10572,-0.43177c-1.48598,-0.11992 -3.76808,-2.94566 -3.76808,-2.94566z" fill="url(#color-1)" stroke-width="0"/><path d="M213.91275,202.60387v-43.44272c0,0 1.10694,-4.21459 4.45716,-4.21459c5.78197,0 30.54015,-0.32761 41.24456,0.84835c4.15195,0.45612 3.71213,4.17674 3.71213,4.17674c0,0 0.74216,35.82422 0.72056,41.10278c-0.00515,1.25945 0.01218,2.26394 -0.89831,3.31253c-0.91048,1.04859 -1.93787,1.60866 -3.3623,1.59433c-4.29276,-0.04318 -33.35074,0.27476 -42.10572,-0.43177c-1.48598,-0.11992 -3.76808,-2.94566 -3.76808,-2.94566z" fill="#ffffff" stroke-width="0"/><path d="M225.02925,198.2465c0,0 -1.3123,-1.31124 -1.3123,-3.72839c0,-4.35379 0.09645,-20.84692 0.79031,-28.71039c0.27258,-3.08915 1.05899,-4.54917 1.05899,-4.54917c0,0 1.89873,-2.50169 4.65684,-2.66067c6.11182,-0.35231 16.14573,0.33392 19.38792,0.33392c1.92136,0 4.35671,2.32675 4.35671,2.32675c0,0 1.9528,1.27139 2.18049,4.63453c0.52663,7.77884 -0.65926,24.21497 -0.65926,28.56546c0,2.65075 -1.78974,4.32498 -1.78974,4.32498c0,0 -1.32329,2.119 -4.41785,2.47706c-6.11053,0.70702 -17.15643,-0.35925 -20.46175,-0.35925c-2.37169,0 -3.79037,-2.65482 -3.79037,-2.65482z" fill="#b8b8b8" stroke-width="0"/><path d="M229.62514,175.27817v-11.33502h21.47688v11.33502z" fill="#ffffff" stroke-width="0"/><path d="M228.63083,184.62459v-6.76124h6.76124v6.76124z" fill="#c1c1c1" stroke-width="0"/><path d="M237.77839,184.62459v-6.76124h6.76124v6.76124z" fill="#c1c1c1" stroke-width="0"/><path d="M246.52823,184.82345v-6.76124h6.76124v6.76124z" fill="#c1c1c1" stroke-width="0"/><path d="M228.63083,193.37443v-6.76124h6.76124v6.76124z" fill="#c1c1c1" stroke-width="0"/><path d="M237.77839,193.37443v-6.76124h6.76124v6.76124z" fill="#c1c1c1" stroke-width="0"/><path d="M246.72709,193.17556v-6.76124h6.76124v6.76124z" fill="#c1c1c1" stroke-width="0"/><text transform="translate(230.07938,173.867) scale(0.26046,0.26046)" font-size="40" xml:space="preserve" fill="#3e3e3e" fill-rule="nonzero" stroke="none" stroke-width="1" stroke-linecap="butt" stroke-linejoin="miter" stroke-miterlimit="10" stroke-dasharray="" stroke-dashoffset="0" font-family="Sans Serif" font-weight="normal" text-anchor="start" style="mix-blend-mode: normal"><tspan x="0" dy="0">√2</tspan></text></g></g></svg>